<svg width="90" height="90" viewBox="0 0 90 90" fill="none" xmlns="http://www.w3.org/2000/svg">
<circle cx="45" cy="45" r="45" fill="#3B3054"/>
<path d="M44.968 25C55.978 25 64.937 33.958 64.937 44.968C64.937 55.978 55.979 64.937 44.968 64.937C33.958 64.937 25 55.979 25 44.968C25 33.958 33.958 25 44.968 25ZM52.773 60.579C47.91 58.177 42.027 58.177 37.164 60.579C39.584 61.8012 42.2569 62.439 44.968 62.441C47.6795 62.4391 50.3527 61.8014 52.773 60.579ZM46.217 27.559V31.24H43.72V27.56C40.262 27.8037 36.9561 29.077 34.228 31.216L37.026 34.013L35.261 35.778L32.373 32.89C29.8499 35.5161 28.2138 38.8673 27.695 42.472H32.488V44.969H27.496C27.496 50.774 30.353 55.912 34.723 59.091C40.94 55.377 48.997 55.377 55.213 59.091C59.583 55.912 62.441 50.774 62.441 44.968H57.449V42.472H62.242C61.7232 38.8673 60.0871 35.5161 57.564 32.89L54.676 35.778L52.911 34.013L55.709 31.216C52.9811 29.0767 49.6751 27.803 46.217 27.559ZM43.78 35.851C44.112 34.817 45.825 34.817 46.157 35.851C46.792 37.829 49.961 47.806 49.961 49.961C49.9597 51.2847 49.4332 52.5538 48.4971 53.4898C47.5609 54.4257 46.2917 54.9519 44.968 54.953C43.6444 54.9517 42.3755 54.4253 41.4396 53.4894C40.5037 52.5535 39.9773 51.2846 39.976 49.961C39.976 47.806 43.146 37.829 43.78 35.851ZM44.968 40.418C43.735 44.465 42.472 48.94 42.472 49.961C42.4731 50.6227 42.7364 51.2569 43.2042 51.7248C43.6721 52.1926 44.3063 52.4559 44.968 52.457C45.6298 52.4562 46.2643 52.193 46.7324 51.7251C47.2005 51.2572 47.4639 50.6228 47.465 49.961C47.465 48.941 46.202 44.465 44.968 40.418Z" fill="#2BD0D0"/>
</svg>
