<svg width="90" height="90" viewBox="0 0 90 90" fill="none" xmlns="http://www.w3.org/2000/svg">
<circle cx="45" cy="45" r="45" fill="#3B3054"/>
<g clip-path="url(#clip0)">
<path d="M67.608 27.02C67.4696 26.9357 67.3123 26.8873 67.1505 26.8791C66.9886 26.8709 66.8273 26.9032 66.681 26.973L59.057 30.564C57.7364 31.1859 56.6035 32.1458 55.7732 33.3465C54.943 34.5471 54.4447 35.9458 54.329 37.401L54.133 39.837L50.183 46.398V43.597C50.183 43.587 50.177 43.58 50.177 43.57C50.1758 43.4736 50.1603 43.3779 50.131 43.286L48.293 37.772L52.046 30.268C52.1268 30.1041 52.1603 29.9209 52.1428 29.7389C52.1253 29.557 52.0575 29.3836 51.947 29.238L46.047 21.371C45.9514 21.255 45.8313 21.1615 45.6953 21.0973C45.5593 21.0332 45.4109 20.9999 45.2605 20.9999C45.1101 20.9999 44.9617 21.0332 44.8257 21.0973C44.6897 21.1615 44.5696 21.255 44.474 21.371L38.573 29.24C38.4634 29.3861 38.3967 29.5599 38.3803 29.7418C38.3639 29.9237 38.3984 30.1066 38.48 30.27L42.233 37.773L40.395 43.287C40.3654 43.3788 40.3495 43.4745 40.348 43.571V47.522L34.221 38.223C34.214 38.213 34.201 38.206 34.195 38.197C34.136 38.115 34.0648 38.0425 33.984 37.982C33.964 37.969 33.948 37.952 33.928 37.94C33.908 37.927 33.906 37.92 33.893 37.913L30.288 35.828L28.791 33.557L26.628 30.27C26.5073 30.0869 26.3288 29.9495 26.1209 29.8796C25.9131 29.8096 25.6878 29.8112 25.481 29.884L21.654 31.227C21.5135 31.277 21.3861 31.3582 21.2817 31.4647C21.1772 31.5711 21.0983 31.7 21.051 31.8414C21.0037 31.9829 20.9892 32.1332 21.0086 32.2811C21.028 32.429 21.0808 32.5705 21.163 32.695L23.868 36.802L25.36 39.072L25.852 43.209C25.8546 43.2225 25.8579 43.2359 25.862 43.249C25.866 43.269 25.871 43.29 25.877 43.31C25.8993 43.414 25.9385 43.5137 25.993 43.605C26 43.615 26 43.628 26.007 43.638C26.014 43.648 40.631 65.803 40.702 65.863C41.0534 66.7858 41.677 67.58 42.4902 68.1403C43.3033 68.7005 44.2675 69.0004 45.255 69C45.655 69 46.055 68.95 46.445 68.855C47.0724 68.7011 47.6631 68.4244 48.1828 68.0407C48.7026 67.6571 49.1411 67.1742 49.473 66.62L62.553 44.922L64.618 43.615C65.7024 42.925 66.6128 41.9938 67.278 40.894C68.123 39.4946 68.5336 37.876 68.458 36.243L68.075 27.823C68.0693 27.6611 68.0237 27.503 67.9422 27.3629C67.8608 27.2228 67.7459 27.105 67.608 27.02ZM60.486 44.544L58.964 47.071L53.91 44.023L55.434 41.496L60.486 44.544ZM42.315 59.446V44.58H48.215V49.66L42.315 59.446ZM44.008 38.68H46.523L47.833 42.613H42.697L44.007 38.68H44.008ZM45.265 31.795C45.0043 31.795 44.7543 31.6914 44.5699 31.5071C44.3856 31.3227 44.282 31.0727 44.282 30.812C44.282 30.5513 44.3856 30.3013 44.5699 30.1169C44.7543 29.9326 45.0043 29.829 45.265 29.829C45.5257 29.829 45.7757 29.9326 45.9601 30.1169C46.1444 30.3013 46.248 30.5513 46.248 30.812C46.248 31.0727 46.1444 31.3227 45.9601 31.5071C45.7757 31.6914 45.5257 31.795 45.265 31.795ZM45.265 23.601L50.015 29.932L46.625 36.712H46.248V33.582C46.9042 33.3501 47.4572 32.8937 47.8094 32.2935C48.1616 31.6932 48.2902 30.9878 48.1725 30.3019C48.0549 29.616 47.6986 28.9938 47.1665 28.5452C46.6344 28.0966 45.9609 27.8506 45.265 27.8506C44.5691 27.8506 43.8956 28.0966 43.3635 28.5452C42.8314 28.9938 42.4751 29.616 42.3575 30.3019C42.2398 30.9878 42.3685 31.6932 42.7206 32.2935C43.0728 32.8937 43.6259 33.3501 44.282 33.582V36.712H43.906L40.516 29.932L45.266 23.601H45.265ZM31.53 38.818L31.24 39.008L27.619 41.395L27.286 38.608C27.2677 38.4565 27.2142 38.3113 27.13 38.184L26.049 36.542L27.69 35.46L28.771 37.102C28.8552 37.2294 28.9679 37.3355 29.1 37.412L31.529 38.818H31.53ZM25.408 31.992L26.608 33.814L24.966 34.896L23.491 32.664L25.408 31.992ZM30.657 41.747L33.115 40.123L40.348 51.095V61.821L28.193 43.371L30.657 41.747ZM47.792 65.598C47.5919 65.9297 47.3284 66.2188 47.0165 66.4487C46.7047 66.6785 46.3506 66.8447 45.9745 66.9378C45.5984 67.0308 45.2077 67.0489 44.8247 66.9909C44.4416 66.933 44.0737 66.8001 43.742 66.6C43.4103 66.3999 43.1212 66.1364 42.8914 65.8245C42.6615 65.5127 42.4953 65.1586 42.4022 64.7825C42.3092 64.4064 42.2911 64.0157 42.3491 63.6327C42.407 63.2496 42.5399 62.8817 42.74 62.55L50.165 50.235H50.182V50.208L52.894 45.709L55.421 47.235L57.951 48.755L47.791 65.598H47.792ZM65.599 39.874C65.0919 40.7121 64.3978 41.4216 63.571 41.947L61.824 43.054L58.972 41.337L56.12 39.62L56.282 37.555C56.3704 36.4457 56.7502 35.3793 57.3831 34.4639C58.016 33.5485 58.8794 32.8165 59.886 32.342L66.18 29.38L66.305 32.12C66.2065 32.1096 66.1071 32.1144 66.01 32.134L63.628 32.724C62.5414 32.9894 61.5509 33.5538 60.7688 34.3535C59.9867 35.1531 59.4443 36.1558 59.203 37.248C59.146 37.5025 59.1924 37.7692 59.332 37.9894C59.4716 38.2097 59.693 38.3655 59.9475 38.4225C60.202 38.4795 60.4687 38.4331 60.6889 38.2935C60.9092 38.1539 61.065 37.9325 61.122 37.678C61.2849 36.9436 61.6501 36.2693 62.1762 35.7316C62.7023 35.1938 63.3683 34.814 64.099 34.635L66.396 34.065L66.499 36.327C66.5565 37.5727 66.2433 38.8074 65.599 39.875V39.874Z" fill="#2BD0D0"/>
</g>
<defs>
<clipPath id="clip0">
<rect width="48" height="48" fill="white" transform="translate(21 21)"/>
</clipPath>
</defs>
</svg>
