<svg width="90" height="90" viewBox="0 0 90 90" fill="none" xmlns="http://www.w3.org/2000/svg">
<circle cx="45" cy="45" r="45" fill="#3B3054"/>
<g clip-path="url(#clip0)">
<path d="M61.406 36.719C62.054 36.719 62.578 37.243 62.578 37.891V62.656H63.828C63.9819 62.656 64.1343 62.6863 64.2765 62.7452C64.4187 62.8041 64.5479 62.8904 64.6567 62.9993C64.7656 63.1081 64.8519 63.2373 64.9108 63.3795C64.9697 63.5217 65 63.6741 65 63.828C65 63.9819 64.9697 64.1343 64.9108 64.2765C64.8519 64.4187 64.7656 64.5479 64.6567 64.6567C64.5479 64.7656 64.4187 64.8519 64.2765 64.9108C64.1343 64.9697 63.9819 65 63.828 65H26.172C26.0181 65 25.8657 64.9697 25.7235 64.9108C25.5813 64.8519 25.4521 64.7656 25.3433 64.6567C25.2344 64.5479 25.1481 64.4187 25.0892 64.2765C25.0303 64.1343 25 63.9819 25 63.828C25 63.6741 25.0303 63.5217 25.0892 63.3795C25.1481 63.2373 25.2344 63.1081 25.3433 62.9993C25.4521 62.8904 25.5813 62.8041 25.7235 62.7452C25.8657 62.6863 26.0181 62.656 26.172 62.656H27.422V49.61C27.422 48.963 27.946 48.438 28.594 48.438H33.28C33.928 48.438 34.452 48.963 34.452 49.61V62.657H36.796V54.297C36.796 53.651 37.32 53.126 37.968 53.126H42.655C43.303 53.126 43.827 53.651 43.827 54.298V62.658H46.171V44.921C46.171 44.274 46.695 43.749 47.343 43.749H52.03C52.678 43.749 53.202 44.274 53.202 44.921V62.655H55.546V37.891C55.546 37.243 56.07 36.719 56.718 36.719H61.406ZM60.234 39.063H57.891V62.656H60.234V39.063ZM50.859 46.093H48.516V62.656H50.859V46.094V46.093ZM41.484 55.469H39.141V62.656H41.484V55.47V55.469ZM32.11 50.78H29.766V62.655H32.109V50.781L32.11 50.78ZM59.062 25C59.9942 25.0011 60.8879 25.3718 61.547 26.031C62.2062 26.6901 62.5769 27.5838 62.578 28.516C62.5767 29.448 62.2058 30.3414 61.5467 31.0004C60.8875 31.6593 59.994 32.0299 59.062 32.031C58.342 32.031 57.673 31.814 57.115 31.441L53.042 34.496C53.206 35.0224 53.2441 35.5801 53.1531 36.1239C53.0621 36.6677 52.8446 37.1826 52.5181 37.627C52.1917 38.0714 51.7654 38.4328 51.2736 38.6823C50.7819 38.9317 50.2384 39.0621 49.687 39.063C49.1629 39.0633 48.6455 38.9457 48.173 38.719L43.484 43.407C43.704 43.866 43.828 44.38 43.828 44.922C43.8267 45.8538 43.4559 46.7471 42.797 47.406C42.1381 48.0649 41.2448 48.4357 40.313 48.437C39.815 48.4362 39.3229 48.3297 38.8691 48.1246C38.4153 47.9195 38.0102 47.6205 37.6805 47.2473C37.3509 46.874 37.1041 46.4351 36.9567 45.9594C36.8092 45.4838 36.7643 44.9823 36.825 44.488L33.375 42.764C32.7212 43.3968 31.8469 43.7504 30.937 43.75C30.005 43.7487 29.1116 43.3778 28.4526 42.7187C27.7937 42.0595 27.4231 41.166 27.422 40.234C27.4233 39.3022 27.7941 38.4089 28.453 37.75C29.1119 37.0911 30.0052 36.7203 30.937 36.719C31.435 36.7198 31.9271 36.8263 32.3809 37.0314C32.8347 37.2365 33.2398 37.5355 33.5695 37.9087C33.8991 38.282 34.1459 38.7209 34.2933 39.1966C34.4408 39.6722 34.4857 40.1737 34.425 40.668L37.875 42.393C38.3891 41.8949 39.0435 41.5662 39.7501 41.4512C40.4567 41.3363 41.1815 41.4405 41.827 41.75L46.516 37.062C46.2892 36.5892 46.1716 36.0714 46.172 35.547C46.1731 34.615 46.5437 33.7215 47.2026 33.0623C47.8616 32.4032 48.755 32.0323 49.687 32.031C50.407 32.031 51.077 32.249 51.635 32.621L55.708 29.567C55.544 29.0406 55.5059 28.4829 55.5969 27.9391C55.6879 27.3953 55.9054 26.8804 56.2319 26.436C56.5583 25.9916 56.9846 25.6302 57.4764 25.3807C57.9681 25.1313 58.5116 25.0009 59.063 25H59.062ZM40.312 43.75C39.666 43.75 39.141 44.276 39.141 44.922C39.141 45.568 39.666 46.094 40.312 46.094C40.959 46.094 41.484 45.568 41.484 44.922C41.484 44.276 40.959 43.75 40.312 43.75ZM30.938 39.062C30.291 39.062 29.766 39.588 29.766 40.234C29.766 40.88 30.291 41.406 30.937 41.406C31.584 41.406 32.109 40.88 32.109 40.234C32.109 39.588 31.584 39.063 30.938 39.063V39.062ZM49.688 34.375C49.041 34.375 48.516 34.901 48.516 35.547C48.516 36.193 49.041 36.719 49.688 36.719C50.334 36.719 50.859 36.193 50.859 35.547C50.859 34.901 50.334 34.375 49.687 34.375H49.688ZM59.063 27.344C58.416 27.344 57.891 27.87 57.891 28.516C57.891 29.162 58.416 29.687 59.063 29.687C59.709 29.687 60.234 29.162 60.234 28.516C60.234 27.87 59.709 27.344 59.062 27.344H59.063Z" fill="#2BD0D0"/>
</g>
<defs>
<clipPath id="clip0">
<rect width="40" height="40" fill="white" transform="translate(25 25)"/>
</clipPath>
</defs>
</svg>
