<svg width="24" height="20" viewBox="0 0 24 20" fill="none" xmlns="http://www.w3.org/2000/svg">
<path d="M24 2.55699C23.1014 2.95526 22.1481 3.2165 21.172 3.33199C22.2006 2.71717 22.9702 1.74886 23.337 0.60799C22.3704 1.18157 21.3128 1.58573 20.21 1.80299C19.7494 1.31138 19.1928 0.91968 18.5745 0.652184C17.9563 0.384688 17.2896 0.247111 16.616 0.24799C13.437 0.24799 11.101 3.21399 11.819 6.29299C9.86138 6.195 7.94625 5.68639 6.19796 4.80018C4.44967 3.91398 2.9073 2.66999 1.671 1.14899C1.04148 2.23303 0.848566 3.51617 1.13149 4.7374C1.41441 5.95862 2.15192 7.02621 3.194 7.72299C2.41251 7.69832 1.64826 7.48711 0.965 7.10699C0.911 9.38799 2.546 11.522 4.914 11.997C4.18873 12.194 3.42806 12.2227 2.69 12.081C3.00451 13.0594 3.61703 13.9149 4.44184 14.528C5.26665 15.141 6.26249 15.4809 7.29 15.5C5.2262 17.1189 2.6043 17.8526 0 17.54C2.25151 18.9866 4.87183 19.7545 7.548 19.752C16.69 19.752 21.855 12.031 21.543 5.10599C22.5067 4.40881 23.3387 3.54569 24 2.55699Z" fill="white"/>
</svg>
